<?xml version="1.0" encoding="UTF-8" standalone="no"?><svg xmlns="http://www.w3.org/2000/svg" xmlns:xlink="http://www.w3.org/1999/xlink" contentStyleType="text/css" height="772px" preserveAspectRatio="none" style="width:2023px;height:772px;background:#FFFFFF;" version="1.1" viewBox="0 0 2023 772" width="2023px" zoomAndPan="magnify"><defs/><g><!--MD5=[26f6a14347ce0f4659b595a34e882486]
class Mall--><g id="elem_Mall"><rect codeLine="5" fill="#F1F1F1" height="100.8281" id="Mall" rx="2.5" ry="2.5" style="stroke:#181818;stroke-width:0.5;" width="183" x="553.5" y="281.5"/><ellipse cx="628.25" cy="297.5" fill="#ADD1B2" rx="11" ry="11" style="stroke:#181818;stroke-width:1.0;"/><path d="M631.0156,293.375 Q631.1719,293.1563 631.3594,293.0469 Q631.5469,292.9375 631.7656,292.9375 Q632.1406,292.9375 632.375,293.2031 Q632.6094,293.4531 632.6094,294.0625 L632.6094,295.5156 Q632.6094,296.125 632.375,296.3906 Q632.1406,296.6563 631.7656,296.6563 Q631.4219,296.6563 631.2188,296.4531 Q631.0156,296.2656 630.9063,295.75 Q630.8594,295.3906 630.6719,295.2031 Q630.3438,294.8281 629.7344,294.6094 Q629.125,294.3906 628.5,294.3906 Q627.7344,294.3906 627.0938,294.7188 Q626.4688,295.0469 625.9688,295.7969 Q625.4844,296.5469 625.4844,297.5781 L625.4844,298.6719 Q625.4844,299.9063 626.375,300.7344 Q627.2656,301.5469 628.8594,301.5469 Q629.7969,301.5469 630.4531,301.2969 Q630.8438,301.1406 631.2656,300.7031 Q631.5313,300.4375 631.6719,300.3594 Q631.8281,300.2813 632.0313,300.2813 Q632.3594,300.2813 632.6094,300.5469 Q632.875,300.7969 632.875,301.1406 Q632.875,301.4844 632.5313,301.8906 Q632.0313,302.4688 631.2344,302.7969 Q630.1563,303.25 628.8594,303.25 Q627.3438,303.25 626.1406,302.625 Q625.1563,302.125 624.4688,301.0625 Q623.7813,299.9844 623.7813,298.7031 L623.7813,297.5469 Q623.7813,296.2188 624.3906,295.0781 Q625.0156,293.9219 626.1094,293.3125 Q627.2031,292.6875 628.4375,292.6875 Q629.1719,292.6875 629.8125,292.8594 Q630.4688,293.0156 631.0156,293.375 Z " fill="#000000"/><text fill="#000000" font-family="sans-serif" font-size="14" lengthAdjust="spacing" textLength="25" x="648.75" y="303.2285">Mall</text><line style="stroke:#181818;stroke-width:0.5;" x1="554.5" x2="735.5" y1="313.5" y2="313.5"/><ellipse cx="564.5" cy="327.8047" fill="none" rx="3" ry="3" style="stroke:#038048;stroke-width:1.0;"/><text fill="#000000" font-family="sans-serif" font-size="14" lengthAdjust="spacing" textLength="30" x="573.5" y="332.0332">Id:int</text><ellipse cx="564.5" cy="345.4141" fill="none" rx="3" ry="3" style="stroke:#038048;stroke-width:1.0;"/><text fill="#000000" font-family="sans-serif" font-size="14" lengthAdjust="spacing" textLength="93" x="573.5" y="349.6426">Location:string</text><line style="stroke:#181818;stroke-width:0.5;" x1="554.5" x2="735.5" y1="356.7188" y2="356.7188"/><ellipse cx="564.5" cy="371.0234" fill="#84BE84" rx="3" ry="3" style="stroke:#038048;stroke-width:1.0;"/><text fill="#000000" font-family="sans-serif" font-size="14" lengthAdjust="spacing" textLength="157" x="573.5" y="375.252">Mall(id:int,location:string)</text></g><!--MD5=[4dfc6a72b8dd60daa1b635d583ff79da]
class Map--><g id="elem_Map"><rect codeLine="11" fill="#F1F1F1" height="100.8281" id="Map" rx="2.5" ry="2.5" style="stroke:#181818;stroke-width:0.5;" width="351" x="771.5" y="281.5"/><ellipse cx="929.25" cy="297.5" fill="#ADD1B2" rx="11" ry="11" style="stroke:#181818;stroke-width:1.0;"/><path d="M932.0156,293.375 Q932.1719,293.1563 932.3594,293.0469 Q932.5469,292.9375 932.7656,292.9375 Q933.1406,292.9375 933.375,293.2031 Q933.6094,293.4531 933.6094,294.0625 L933.6094,295.5156 Q933.6094,296.125 933.375,296.3906 Q933.1406,296.6563 932.7656,296.6563 Q932.4219,296.6563 932.2188,296.4531 Q932.0156,296.2656 931.9063,295.75 Q931.8594,295.3906 931.6719,295.2031 Q931.3438,294.8281 930.7344,294.6094 Q930.125,294.3906 929.5,294.3906 Q928.7344,294.3906 928.0938,294.7188 Q927.4688,295.0469 926.9688,295.7969 Q926.4844,296.5469 926.4844,297.5781 L926.4844,298.6719 Q926.4844,299.9063 927.375,300.7344 Q928.2656,301.5469 929.8594,301.5469 Q930.7969,301.5469 931.4531,301.2969 Q931.8438,301.1406 932.2656,300.7031 Q932.5313,300.4375 932.6719,300.3594 Q932.8281,300.2813 933.0313,300.2813 Q933.3594,300.2813 933.6094,300.5469 Q933.875,300.7969 933.875,301.1406 Q933.875,301.4844 933.5313,301.8906 Q933.0313,302.4688 932.2344,302.7969 Q931.1563,303.25 929.8594,303.25 Q928.3438,303.25 927.1406,302.625 Q926.1563,302.125 925.4688,301.0625 Q924.7813,299.9844 924.7813,298.7031 L924.7813,297.5469 Q924.7813,296.2188 925.3906,295.0781 Q926.0156,293.9219 927.1094,293.3125 Q928.2031,292.6875 929.4375,292.6875 Q930.1719,292.6875 930.8125,292.8594 Q931.4688,293.0156 932.0156,293.375 Z " fill="#000000"/><text fill="#000000" font-family="sans-serif" font-size="14" lengthAdjust="spacing" textLength="27" x="949.75" y="303.2285">Map</text><line style="stroke:#181818;stroke-width:0.5;" x1="772.5" x2="1121.5" y1="313.5" y2="313.5"/><ellipse cx="782.5" cy="327.8047" fill="none" rx="3" ry="3" style="stroke:#038048;stroke-width:1.0;"/><text fill="#000000" font-family="sans-serif" font-size="14" lengthAdjust="spacing" textLength="55" x="791.5" y="332.0332">Layer:int</text><ellipse cx="782.5" cy="345.4141" fill="none" rx="3" ry="3" style="stroke:#038048;stroke-width:1.0;"/><text fill="#000000" font-family="sans-serif" font-size="14" lengthAdjust="spacing" textLength="234" x="791.5" y="349.6426">components:Dictonary&lt;string,object&gt;</text><line style="stroke:#181818;stroke-width:0.5;" x1="772.5" x2="1121.5" y1="356.7188" y2="356.7188"/><ellipse cx="782.5" cy="371.0234" fill="#84BE84" rx="3" ry="3" style="stroke:#038048;stroke-width:1.0;"/><text fill="#000000" font-family="sans-serif" font-size="14" lengthAdjust="spacing" textLength="325" x="791.5" y="375.252">Map(layer:int,components:Dictonary&lt;string,object&gt;)</text></g><!--MD5=[373bc1c388151141be97a34ce3ef19a0]
class MapV--><g id="elem_MapV"><rect codeLine="17" fill="#F1F1F1" height="118.4375" id="MapV" rx="2.5" ry="2.5" style="stroke:#181818;stroke-width:0.5;" width="430" x="1158" y="273"/><ellipse cx="1350.75" cy="289" fill="#ADD1B2" rx="11" ry="11" style="stroke:#181818;stroke-width:1.0;"/><path d="M1353.5156,284.875 Q1353.6719,284.6563 1353.8594,284.5469 Q1354.0469,284.4375 1354.2656,284.4375 Q1354.6406,284.4375 1354.875,284.7031 Q1355.1094,284.9531 1355.1094,285.5625 L1355.1094,287.0156 Q1355.1094,287.625 1354.875,287.8906 Q1354.6406,288.1563 1354.2656,288.1563 Q1353.9219,288.1563 1353.7188,287.9531 Q1353.5156,287.7656 1353.4063,287.25 Q1353.3594,286.8906 1353.1719,286.7031 Q1352.8438,286.3281 1352.2344,286.1094 Q1351.625,285.8906 1351,285.8906 Q1350.2344,285.8906 1349.5938,286.2188 Q1348.9688,286.5469 1348.4688,287.2969 Q1347.9844,288.0469 1347.9844,289.0781 L1347.9844,290.1719 Q1347.9844,291.4063 1348.875,292.2344 Q1349.7656,293.0469 1351.3594,293.0469 Q1352.2969,293.0469 1352.9531,292.7969 Q1353.3438,292.6406 1353.7656,292.2031 Q1354.0313,291.9375 1354.1719,291.8594 Q1354.3281,291.7813 1354.5313,291.7813 Q1354.8594,291.7813 1355.1094,292.0469 Q1355.375,292.2969 1355.375,292.6406 Q1355.375,292.9844 1355.0313,293.3906 Q1354.5313,293.9688 1353.7344,294.2969 Q1352.6563,294.75 1351.3594,294.75 Q1349.8438,294.75 1348.6406,294.125 Q1347.6563,293.625 1346.9688,292.5625 Q1346.2813,291.4844 1346.2813,290.2031 L1346.2813,289.0469 Q1346.2813,287.7188 1346.8906,286.5781 Q1347.5156,285.4219 1348.6094,284.8125 Q1349.7031,284.1875 1350.9375,284.1875 Q1351.6719,284.1875 1352.3125,284.3594 Q1352.9688,284.5156 1353.5156,284.875 Z " fill="#000000"/><text fill="#000000" font-family="sans-serif" font-size="14" lengthAdjust="spacing" textLength="36" x="1371.25" y="294.7285">MapV</text><line style="stroke:#181818;stroke-width:0.5;" x1="1159" x2="1587" y1="305" y2="305"/><ellipse cx="1169" cy="319.3047" fill="none" rx="3" ry="3" style="stroke:#038048;stroke-width:1.0;"/><text fill="#000000" font-family="sans-serif" font-size="14" lengthAdjust="spacing" textLength="57" x="1178" y="323.5332">MallID:int</text><ellipse cx="1169" cy="336.9141" fill="none" rx="3" ry="3" style="stroke:#038048;stroke-width:1.0;"/><text fill="#000000" font-family="sans-serif" font-size="14" lengthAdjust="spacing" textLength="55" x="1178" y="341.1426">Layer:int</text><ellipse cx="1169" cy="354.5234" fill="none" rx="3" ry="3" style="stroke:#038048;stroke-width:1.0;"/><text fill="#000000" font-family="sans-serif" font-size="14" lengthAdjust="spacing" textLength="248" x="1178" y="358.752">Components:IEnumable&lt;ComponentV&gt;</text><line style="stroke:#181818;stroke-width:0.5;" x1="1159" x2="1587" y1="365.8281" y2="365.8281"/><ellipse cx="1169" cy="380.1328" fill="#84BE84" rx="3" ry="3" style="stroke:#038048;stroke-width:1.0;"/><text fill="#000000" font-family="sans-serif" font-size="14" lengthAdjust="spacing" textLength="404" x="1178" y="384.3613">MapV(mallid:int,layer:int,components:IEnumable&lt;ComponentV&gt;)</text></g><!--MD5=[1047d1e2254b59651b844fa3aaaf06d8]
class ComponentV--><g id="elem_ComponentV"><rect codeLine="24" fill="#F1F1F1" height="118.4375" id="ComponentV" rx="2.5" ry="2.5" style="stroke:#181818;stroke-width:0.5;" width="412" x="1167" y="451"/><ellipse cx="1327.75" cy="467" fill="#ADD1B2" rx="11" ry="11" style="stroke:#181818;stroke-width:1.0;"/><path d="M1330.5156,462.875 Q1330.6719,462.6563 1330.8594,462.5469 Q1331.0469,462.4375 1331.2656,462.4375 Q1331.6406,462.4375 1331.875,462.7031 Q1332.1094,462.9531 1332.1094,463.5625 L1332.1094,465.0156 Q1332.1094,465.625 1331.875,465.8906 Q1331.6406,466.1563 1331.2656,466.1563 Q1330.9219,466.1563 1330.7188,465.9531 Q1330.5156,465.7656 1330.4063,465.25 Q1330.3594,464.8906 1330.1719,464.7031 Q1329.8438,464.3281 1329.2344,464.1094 Q1328.625,463.8906 1328,463.8906 Q1327.2344,463.8906 1326.5938,464.2188 Q1325.9688,464.5469 1325.4688,465.2969 Q1324.9844,466.0469 1324.9844,467.0781 L1324.9844,468.1719 Q1324.9844,469.4063 1325.875,470.2344 Q1326.7656,471.0469 1328.3594,471.0469 Q1329.2969,471.0469 1329.9531,470.7969 Q1330.3438,470.6406 1330.7656,470.2031 Q1331.0313,469.9375 1331.1719,469.8594 Q1331.3281,469.7813 1331.5313,469.7813 Q1331.8594,469.7813 1332.1094,470.0469 Q1332.375,470.2969 1332.375,470.6406 Q1332.375,470.9844 1332.0313,471.3906 Q1331.5313,471.9688 1330.7344,472.2969 Q1329.6563,472.75 1328.3594,472.75 Q1326.8438,472.75 1325.6406,472.125 Q1324.6563,471.625 1323.9688,470.5625 Q1323.2813,469.4844 1323.2813,468.2031 L1323.2813,467.0469 Q1323.2813,465.7188 1323.8906,464.5781 Q1324.5156,463.4219 1325.6094,462.8125 Q1326.7031,462.1875 1327.9375,462.1875 Q1328.6719,462.1875 1329.3125,462.3594 Q1329.9688,462.5156 1330.5156,462.875 Z " fill="#000000"/><text fill="#000000" font-family="sans-serif" font-size="14" lengthAdjust="spacing" textLength="82" x="1348.25" y="472.7285">ComponentV</text><line style="stroke:#181818;stroke-width:0.5;" x1="1168" x2="1578" y1="483" y2="483"/><ellipse cx="1178" cy="497.3047" fill="none" rx="3" ry="3" style="stroke:#038048;stroke-width:1.0;"/><text fill="#000000" font-family="sans-serif" font-size="14" lengthAdjust="spacing" textLength="110" x="1187" y="501.5332">Description:string</text><ellipse cx="1178" cy="514.9141" fill="none" rx="3" ry="3" style="stroke:#038048;stroke-width:1.0;"/><text fill="#000000" font-family="sans-serif" font-size="14" lengthAdjust="spacing" textLength="60" x="1187" y="519.1426">ZIndex:int</text><ellipse cx="1178" cy="532.5234" fill="none" rx="3" ry="3" style="stroke:#038048;stroke-width:1.0;"/><text fill="#000000" font-family="sans-serif" font-size="14" lengthAdjust="spacing" textLength="123" x="1187" y="536.752">Geodata:GeodataV</text><line style="stroke:#181818;stroke-width:0.5;" x1="1168" x2="1578" y1="543.8281" y2="543.8281"/><ellipse cx="1178" cy="558.1328" fill="#84BE84" rx="3" ry="3" style="stroke:#038048;stroke-width:1.0;"/><text fill="#000000" font-family="sans-serif" font-size="14" lengthAdjust="spacing" textLength="386" x="1187" y="562.3613">ComponentV(description:string,zindex:int,geodata:GeodataV)</text></g><!--MD5=[b1b824b4379335b6f56a29b9dc6e3e79]
class GeodataV--><g id="elem_GeodataV"><rect codeLine="32" fill="#F1F1F1" height="136.0469" id="GeodataV" rx="2.5" ry="2.5" style="stroke:#181818;stroke-width:0.5;" width="349" x="1198.5" y="629"/><ellipse cx="1336.75" cy="645" fill="#ADD1B2" rx="11" ry="11" style="stroke:#181818;stroke-width:1.0;"/><path d="M1339.5156,640.875 Q1339.6719,640.6563 1339.8594,640.5469 Q1340.0469,640.4375 1340.2656,640.4375 Q1340.6406,640.4375 1340.875,640.7031 Q1341.1094,640.9531 1341.1094,641.5625 L1341.1094,643.0156 Q1341.1094,643.625 1340.875,643.8906 Q1340.6406,644.1563 1340.2656,644.1563 Q1339.9219,644.1563 1339.7188,643.9531 Q1339.5156,643.7656 1339.4063,643.25 Q1339.3594,642.8906 1339.1719,642.7031 Q1338.8438,642.3281 1338.2344,642.1094 Q1337.625,641.8906 1337,641.8906 Q1336.2344,641.8906 1335.5938,642.2188 Q1334.9688,642.5469 1334.4688,643.2969 Q1333.9844,644.0469 1333.9844,645.0781 L1333.9844,646.1719 Q1333.9844,647.4063 1334.875,648.2344 Q1335.7656,649.0469 1337.3594,649.0469 Q1338.2969,649.0469 1338.9531,648.7969 Q1339.3438,648.6406 1339.7656,648.2031 Q1340.0313,647.9375 1340.1719,647.8594 Q1340.3281,647.7813 1340.5313,647.7813 Q1340.8594,647.7813 1341.1094,648.0469 Q1341.375,648.2969 1341.375,648.6406 Q1341.375,648.9844 1341.0313,649.3906 Q1340.5313,649.9688 1339.7344,650.2969 Q1338.6563,650.75 1337.3594,650.75 Q1335.8438,650.75 1334.6406,650.125 Q1333.6563,649.625 1332.9688,648.5625 Q1332.2813,647.4844 1332.2813,646.2031 L1332.2813,645.0469 Q1332.2813,643.7188 1332.8906,642.5781 Q1333.5156,641.4219 1334.6094,640.8125 Q1335.7031,640.1875 1336.9375,640.1875 Q1337.6719,640.1875 1338.3125,640.3594 Q1338.9688,640.5156 1339.5156,640.875 Z " fill="#000000"/><text fill="#000000" font-family="sans-serif" font-size="14" lengthAdjust="spacing" textLength="64" x="1357.25" y="650.7285">GeodataV</text><line style="stroke:#181818;stroke-width:0.5;" x1="1199.5" x2="1546.5" y1="661" y2="661"/><ellipse cx="1209.5" cy="675.3047" fill="none" rx="3" ry="3" style="stroke:#038048;stroke-width:1.0;"/><text fill="#000000" font-family="sans-serif" font-size="14" lengthAdjust="spacing" textLength="71" x="1218.5" y="679.5332">Type:string</text><ellipse cx="1209.5" cy="692.9141" fill="none" rx="3" ry="3" style="stroke:#038048;stroke-width:1.0;"/><text fill="#000000" font-family="sans-serif" font-size="14" lengthAdjust="spacing" textLength="66" x="1218.5" y="697.1426">XInput:int[]</text><ellipse cx="1209.5" cy="710.5234" fill="none" rx="3" ry="3" style="stroke:#038048;stroke-width:1.0;"/><text fill="#000000" font-family="sans-serif" font-size="14" lengthAdjust="spacing" textLength="67" x="1218.5" y="714.752">YInput:int[]</text><ellipse cx="1209.5" cy="728.1328" fill="none" rx="3" ry="3" style="stroke:#038048;stroke-width:1.0;"/><text fill="#000000" font-family="sans-serif" font-size="14" lengthAdjust="spacing" textLength="64" x="1218.5" y="732.3613">Srid:string</text><line style="stroke:#181818;stroke-width:0.5;" x1="1199.5" x2="1546.5" y1="739.4375" y2="739.4375"/><ellipse cx="1209.5" cy="753.7422" fill="#84BE84" rx="3" ry="3" style="stroke:#038048;stroke-width:1.0;"/><text fill="#000000" font-family="sans-serif" font-size="14" lengthAdjust="spacing" textLength="323" x="1218.5" y="757.9707">GeodataV(type:string,xInput:int[],yInput:int[],srid:int)</text></g><!--MD5=[a6a5eabb8ddefd8828b6453a50523569]
class AppState--><g id="elem_AppState"><rect codeLine="40" fill="#F1F1F1" height="100.8281" id="AppState" rx="2.5" ry="2.5" style="stroke:#181818;stroke-width:0.5;" width="395" x="1621.5" y="59.5"/><ellipse cx="1785.75" cy="75.5" fill="#ADD1B2" rx="11" ry="11" style="stroke:#181818;stroke-width:1.0;"/><path d="M1788.5156,71.375 Q1788.6719,71.1563 1788.8594,71.0469 Q1789.0469,70.9375 1789.2656,70.9375 Q1789.6406,70.9375 1789.875,71.2031 Q1790.1094,71.4531 1790.1094,72.0625 L1790.1094,73.5156 Q1790.1094,74.125 1789.875,74.3906 Q1789.6406,74.6563 1789.2656,74.6563 Q1788.9219,74.6563 1788.7188,74.4531 Q1788.5156,74.2656 1788.4063,73.75 Q1788.3594,73.3906 1788.1719,73.2031 Q1787.8438,72.8281 1787.2344,72.6094 Q1786.625,72.3906 1786,72.3906 Q1785.2344,72.3906 1784.5938,72.7188 Q1783.9688,73.0469 1783.4688,73.7969 Q1782.9844,74.5469 1782.9844,75.5781 L1782.9844,76.6719 Q1782.9844,77.9063 1783.875,78.7344 Q1784.7656,79.5469 1786.3594,79.5469 Q1787.2969,79.5469 1787.9531,79.2969 Q1788.3438,79.1406 1788.7656,78.7031 Q1789.0313,78.4375 1789.1719,78.3594 Q1789.3281,78.2813 1789.5313,78.2813 Q1789.8594,78.2813 1790.1094,78.5469 Q1790.375,78.7969 1790.375,79.1406 Q1790.375,79.4844 1790.0313,79.8906 Q1789.5313,80.4688 1788.7344,80.7969 Q1787.6563,81.25 1786.3594,81.25 Q1784.8438,81.25 1783.6406,80.625 Q1782.6563,80.125 1781.9688,79.0625 Q1781.2813,77.9844 1781.2813,76.7031 L1781.2813,75.5469 Q1781.2813,74.2188 1781.8906,73.0781 Q1782.5156,71.9219 1783.6094,71.3125 Q1784.7031,70.6875 1785.9375,70.6875 Q1786.6719,70.6875 1787.3125,70.8594 Q1787.9688,71.0156 1788.5156,71.375 Z " fill="#000000"/><text fill="#000000" font-family="sans-serif" font-size="14" lengthAdjust="spacing" textLength="58" x="1806.25" y="81.2285">AppState</text><line style="stroke:#181818;stroke-width:0.5;" x1="1622.5" x2="2015.5" y1="91.5" y2="91.5"/><ellipse cx="1632.5" cy="105.8047" fill="none" rx="3" ry="3" style="stroke:#038048;stroke-width:1.0;"/><text fill="#000000" font-family="sans-serif" font-size="14" lengthAdjust="spacing" textLength="198" x="1641.5" y="110.0332">Credentials:SessionCredentials</text><ellipse cx="1632.5" cy="123.4141" fill="none" rx="3" ry="3" style="stroke:#038048;stroke-width:1.0;"/><text fill="#000000" font-family="sans-serif" font-size="14" lengthAdjust="spacing" textLength="103" x="1641.5" y="127.6426">Username:string</text><line style="stroke:#181818;stroke-width:0.5;" x1="1622.5" x2="2015.5" y1="134.7188" y2="134.7188"/><ellipse cx="1632.5" cy="149.0234" fill="#84BE84" rx="3" ry="3" style="stroke:#038048;stroke-width:1.0;"/><text fill="#000000" font-family="sans-serif" font-size="14" lengthAdjust="spacing" textLength="369" x="1641.5" y="153.252">AppState(credentials:SessionCredentials,username:string)</text></g><!--MD5=[223ffb686bff83c7716f14b7ed7efffc]
class SessionCredentials--><g id="elem_SessionCredentials"><rect codeLine="47" fill="#F1F1F1" height="118.4375" id="SessionCredentials" rx="2.5" ry="2.5" style="stroke:#181818;stroke-width:0.5;" width="391" x="1623.5" y="273"/><ellipse cx="1753.75" cy="289" fill="#ADD1B2" rx="11" ry="11" style="stroke:#181818;stroke-width:1.0;"/><path d="M1756.5156,284.875 Q1756.6719,284.6563 1756.8594,284.5469 Q1757.0469,284.4375 1757.2656,284.4375 Q1757.6406,284.4375 1757.875,284.7031 Q1758.1094,284.9531 1758.1094,285.5625 L1758.1094,287.0156 Q1758.1094,287.625 1757.875,287.8906 Q1757.6406,288.1563 1757.2656,288.1563 Q1756.9219,288.1563 1756.7188,287.9531 Q1756.5156,287.7656 1756.4063,287.25 Q1756.3594,286.8906 1756.1719,286.7031 Q1755.8438,286.3281 1755.2344,286.1094 Q1754.625,285.8906 1754,285.8906 Q1753.2344,285.8906 1752.5938,286.2188 Q1751.9688,286.5469 1751.4688,287.2969 Q1750.9844,288.0469 1750.9844,289.0781 L1750.9844,290.1719 Q1750.9844,291.4063 1751.875,292.2344 Q1752.7656,293.0469 1754.3594,293.0469 Q1755.2969,293.0469 1755.9531,292.7969 Q1756.3438,292.6406 1756.7656,292.2031 Q1757.0313,291.9375 1757.1719,291.8594 Q1757.3281,291.7813 1757.5313,291.7813 Q1757.8594,291.7813 1758.1094,292.0469 Q1758.375,292.2969 1758.375,292.6406 Q1758.375,292.9844 1758.0313,293.3906 Q1757.5313,293.9688 1756.7344,294.2969 Q1755.6563,294.75 1754.3594,294.75 Q1752.8438,294.75 1751.6406,294.125 Q1750.6563,293.625 1749.9688,292.5625 Q1749.2813,291.4844 1749.2813,290.2031 L1749.2813,289.0469 Q1749.2813,287.7188 1749.8906,286.5781 Q1750.5156,285.4219 1751.6094,284.8125 Q1752.7031,284.1875 1753.9375,284.1875 Q1754.6719,284.1875 1755.3125,284.3594 Q1755.9688,284.5156 1756.5156,284.875 Z " fill="#000000"/><text fill="#000000" font-family="sans-serif" font-size="14" lengthAdjust="spacing" textLength="122" x="1774.25" y="294.7285">SessionCredentials</text><line style="stroke:#181818;stroke-width:0.5;" x1="1624.5" x2="2013.5" y1="305" y2="305"/><ellipse cx="1634.5" cy="319.3047" fill="none" rx="3" ry="3" style="stroke:#038048;stroke-width:1.0;"/><text fill="#000000" font-family="sans-serif" font-size="14" lengthAdjust="spacing" textLength="68" x="1643.5" y="323.5332">Role:string</text><ellipse cx="1634.5" cy="336.9141" fill="none" rx="3" ry="3" style="stroke:#038048;stroke-width:1.0;"/><text fill="#000000" font-family="sans-serif" font-size="14" lengthAdjust="spacing" textLength="113" x="1643.5" y="341.1426">SessionKey:string</text><ellipse cx="1634.5" cy="354.5234" fill="none" rx="3" ry="3" style="stroke:#038048;stroke-width:1.0;"/><text fill="#000000" font-family="sans-serif" font-size="14" lengthAdjust="spacing" textLength="60" x="1643.5" y="358.752">FirmID:int</text><line style="stroke:#181818;stroke-width:0.5;" x1="1624.5" x2="2013.5" y1="365.8281" y2="365.8281"/><ellipse cx="1634.5" cy="380.1328" fill="#84BE84" rx="3" ry="3" style="stroke:#038048;stroke-width:1.0;"/><text fill="#000000" font-family="sans-serif" font-size="14" lengthAdjust="spacing" textLength="365" x="1643.5" y="384.3613">SessionCredentials(role:string,sessionkey:string,firmid:int)</text></g><!--MD5=[e01ef6c0f5938bf4963fb4b3d8832368]
class FirmUser--><g id="elem_FirmUser"><rect codeLine="54" fill="#F1F1F1" height="100.8281" id="FirmUser" rx="2.5" ry="2.5" style="stroke:#181818;stroke-width:0.5;" width="298" x="7" y="59.5"/><ellipse cx="123.25" cy="75.5" fill="#ADD1B2" rx="11" ry="11" style="stroke:#181818;stroke-width:1.0;"/><path d="M126.0156,71.375 Q126.1719,71.1563 126.3594,71.0469 Q126.5469,70.9375 126.7656,70.9375 Q127.1406,70.9375 127.375,71.2031 Q127.6094,71.4531 127.6094,72.0625 L127.6094,73.5156 Q127.6094,74.125 127.375,74.3906 Q127.1406,74.6563 126.7656,74.6563 Q126.4219,74.6563 126.2188,74.4531 Q126.0156,74.2656 125.9063,73.75 Q125.8594,73.3906 125.6719,73.2031 Q125.3438,72.8281 124.7344,72.6094 Q124.125,72.3906 123.5,72.3906 Q122.7344,72.3906 122.0938,72.7188 Q121.4688,73.0469 120.9688,73.7969 Q120.4844,74.5469 120.4844,75.5781 L120.4844,76.6719 Q120.4844,77.9063 121.375,78.7344 Q122.2656,79.5469 123.8594,79.5469 Q124.7969,79.5469 125.4531,79.2969 Q125.8438,79.1406 126.2656,78.7031 Q126.5313,78.4375 126.6719,78.3594 Q126.8281,78.2813 127.0313,78.2813 Q127.3594,78.2813 127.6094,78.5469 Q127.875,78.7969 127.875,79.1406 Q127.875,79.4844 127.5313,79.8906 Q127.0313,80.4688 126.2344,80.7969 Q125.1563,81.25 123.8594,81.25 Q122.3438,81.25 121.1406,80.625 Q120.1563,80.125 119.4688,79.0625 Q118.7813,77.9844 118.7813,76.7031 L118.7813,75.5469 Q118.7813,74.2188 119.3906,73.0781 Q120.0156,71.9219 121.1094,71.3125 Q122.2031,70.6875 123.4375,70.6875 Q124.1719,70.6875 124.8125,70.8594 Q125.4688,71.0156 126.0156,71.375 Z " fill="#000000"/><text fill="#000000" font-family="sans-serif" font-size="14" lengthAdjust="spacing" textLength="57" x="143.75" y="81.2285">FirmUser</text><line style="stroke:#181818;stroke-width:0.5;" x1="8" x2="304" y1="91.5" y2="91.5"/><ellipse cx="18" cy="105.8047" fill="none" rx="3" ry="3" style="stroke:#038048;stroke-width:1.0;"/><text fill="#000000" font-family="sans-serif" font-size="14" lengthAdjust="spacing" textLength="100" x="27" y="110.0332">Password:string</text><ellipse cx="18" cy="123.4141" fill="none" rx="3" ry="3" style="stroke:#038048;stroke-width:1.0;"/><text fill="#000000" font-family="sans-serif" font-size="14" lengthAdjust="spacing" textLength="103" x="27" y="127.6426">Username:string</text><line style="stroke:#181818;stroke-width:0.5;" x1="8" x2="304" y1="134.7188" y2="134.7188"/><ellipse cx="18" cy="149.0234" fill="#84BE84" rx="3" ry="3" style="stroke:#038048;stroke-width:1.0;"/><text fill="#000000" font-family="sans-serif" font-size="14" lengthAdjust="spacing" textLength="272" x="27" y="153.252">FirmUser(username:string,password:string)</text></g><!--MD5=[5655ee3e2a0d028d03fe20f829576392]
class Square--><g id="elem_Square"><rect codeLine="61" fill="#F1F1F1" height="100.8281" id="Square" rx="2.5" ry="2.5" style="stroke:#181818;stroke-width:0.5;" width="216" x="340" y="59.5"/><ellipse cx="420.75" cy="75.5" fill="#ADD1B2" rx="11" ry="11" style="stroke:#181818;stroke-width:1.0;"/><path d="M423.5156,71.375 Q423.6719,71.1563 423.8594,71.0469 Q424.0469,70.9375 424.2656,70.9375 Q424.6406,70.9375 424.875,71.2031 Q425.1094,71.4531 425.1094,72.0625 L425.1094,73.5156 Q425.1094,74.125 424.875,74.3906 Q424.6406,74.6563 424.2656,74.6563 Q423.9219,74.6563 423.7188,74.4531 Q423.5156,74.2656 423.4063,73.75 Q423.3594,73.3906 423.1719,73.2031 Q422.8438,72.8281 422.2344,72.6094 Q421.625,72.3906 421,72.3906 Q420.2344,72.3906 419.5938,72.7188 Q418.9688,73.0469 418.4688,73.7969 Q417.9844,74.5469 417.9844,75.5781 L417.9844,76.6719 Q417.9844,77.9063 418.875,78.7344 Q419.7656,79.5469 421.3594,79.5469 Q422.2969,79.5469 422.9531,79.2969 Q423.3438,79.1406 423.7656,78.7031 Q424.0313,78.4375 424.1719,78.3594 Q424.3281,78.2813 424.5313,78.2813 Q424.8594,78.2813 425.1094,78.5469 Q425.375,78.7969 425.375,79.1406 Q425.375,79.4844 425.0313,79.8906 Q424.5313,80.4688 423.7344,80.7969 Q422.6563,81.25 421.3594,81.25 Q419.8438,81.25 418.6406,80.625 Q417.6563,80.125 416.9688,79.0625 Q416.2813,77.9844 416.2813,76.7031 L416.2813,75.5469 Q416.2813,74.2188 416.8906,73.0781 Q417.5156,71.9219 418.6094,71.3125 Q419.7031,70.6875 420.9375,70.6875 Q421.6719,70.6875 422.3125,70.8594 Q422.9688,71.0156 423.5156,71.375 Z " fill="#000000"/><text fill="#000000" font-family="sans-serif" font-size="14" lengthAdjust="spacing" textLength="46" x="441.25" y="81.2285">Square</text><line style="stroke:#181818;stroke-width:0.5;" x1="341" x2="555" y1="91.5" y2="91.5"/><ellipse cx="351" cy="105.8047" fill="none" rx="3" ry="3" style="stroke:#038048;stroke-width:1.0;"/><text fill="#000000" font-family="sans-serif" font-size="14" lengthAdjust="spacing" textLength="106" x="360" y="110.0332">GetPoints:Point[]</text><line style="stroke:#181818;stroke-width:0.5;" x1="341" x2="555" y1="117.1094" y2="117.1094"/><ellipse cx="351" cy="131.4141" fill="#84BE84" rx="3" ry="3" style="stroke:#038048;stroke-width:1.0;"/><text fill="#000000" font-family="sans-serif" font-size="14" lengthAdjust="spacing" textLength="190" x="360" y="135.6426">Addpoint(newPoint:Point):bool</text><ellipse cx="351" cy="149.0234" fill="#84BE84" rx="3" ry="3" style="stroke:#038048;stroke-width:1.0;"/><text fill="#000000" font-family="sans-serif" font-size="14" lengthAdjust="spacing" textLength="56" x="360" y="153.252">Square()</text></g><!--MD5=[6b284f86cd528c589b391e3173fb3263]
class DrawTool--><g id="elem_DrawTool"><rect codeLine="67" fill="#F1F1F1" height="100.8281" id="DrawTool" rx="2.5" ry="2.5" style="stroke:#181818;stroke-width:0.5;" width="92" x="591" y="59.5"/><ellipse cx="606" cy="75.5" fill="#EB937F" rx="11" ry="11" style="stroke:#181818;stroke-width:1.0;"/><path d="M604.8594,76.2969 L604.8594,78.7969 L609.1875,78.7969 L609.1875,77.875 Q609.1875,77.2656 609.4219,77 Q609.6719,76.7344 610.0469,76.7344 Q610.4219,76.7344 610.6563,77 Q610.8906,77.2656 610.8906,77.875 L610.8906,80.5 L602.8906,80.5 Q602.2656,80.5 602,80.2656 Q601.75,80.0313 601.75,79.6406 Q601.75,79.2656 602.0156,79.0313 Q602.2813,78.7969 602.8906,78.7969 L603.1563,78.7969 L603.1563,72.1406 L602.8906,72.1406 Q602.2656,72.1406 602,71.9063 Q601.75,71.6719 601.75,71.2813 Q601.75,70.9063 602,70.6719 Q602.2656,70.4375 602.8906,70.4375 L610.5156,70.4375 L610.5156,73.0313 Q610.5156,73.6406 610.2813,73.9063 Q610.0625,74.1563 609.6719,74.1563 Q609.2969,74.1563 609.0625,73.9063 Q608.8281,73.6406 608.8281,73.0313 L608.8281,72.1406 L604.8594,72.1406 L604.8594,74.5938 L606.3438,74.5938 Q606.3438,73.9375 606.4688,73.75 Q606.7344,73.3438 607.2031,73.3438 Q607.5781,73.3438 607.8125,73.6094 Q608.0469,73.8594 608.0469,74.4688 L608.0469,76.4375 Q608.0469,76.9844 607.9219,77.1719 Q607.6563,77.5625 607.2031,77.5625 Q606.7344,77.5625 606.4688,77.1563 Q606.3438,76.9688 606.3438,76.2969 L604.8594,76.2969 Z " fill="#000000"/><text fill="#000000" font-family="sans-serif" font-size="14" lengthAdjust="spacing" textLength="60" x="620" y="81.2285">DrawTool</text><line style="stroke:#181818;stroke-width:0.5;" x1="592" x2="682" y1="91.5" y2="91.5"/><text fill="#000000" font-family="sans-serif" font-size="14" lengthAdjust="spacing" textLength="29" x="597" y="110.0332">LINE</text><text fill="#000000" font-family="sans-serif" font-size="14" lengthAdjust="spacing" textLength="57" x="597" y="127.6426">SQUARE</text><text fill="#000000" font-family="sans-serif" font-size="14" lengthAdjust="spacing" textLength="68" x="597" y="145.252">POLYGON</text><line style="stroke:#181818;stroke-width:0.5;" x1="592" x2="682" y1="152.3281" y2="152.3281"/></g><!--MD5=[d3ac03255145c013c38b3da33f7bd535]
class ISessionManager--><g id="elem_ISessionManager"><rect codeLine="75" fill="#F1F1F1" height="118.4375" id="ISessionManager" rx="2.5" ry="2.5" style="stroke:#181818;stroke-width:0.5;" width="232" x="40" y="273"/><ellipse cx="96.25" cy="289" fill="#B4A7E5" rx="11" ry="11" style="stroke:#181818;stroke-width:1.0;"/><path d="M97.2031,285.6406 L97.2031,292.2969 L98.9219,292.2969 Q99.5313,292.2969 99.7969,292.5313 Q100.0625,292.7656 100.0625,293.1563 Q100.0625,293.5313 99.7969,293.7656 Q99.5313,294 98.9219,294 L93.7813,294 Q93.1719,294 92.9063,293.7656 Q92.6406,293.5313 92.6406,293.1406 Q92.6406,292.7656 92.9063,292.5313 Q93.1719,292.2969 93.7813,292.2969 L95.5,292.2969 L95.5,285.6406 L93.7813,285.6406 Q93.1719,285.6406 92.9063,285.4063 Q92.6406,285.1719 92.6406,284.7813 Q92.6406,284.4063 92.9063,284.1719 Q93.1719,283.9375 93.7813,283.9375 L98.9219,283.9375 Q99.5313,283.9375 99.7969,284.1719 Q100.0625,284.4063 100.0625,284.7813 Q100.0625,285.1719 99.7969,285.4063 Q99.5313,285.6406 98.9219,285.6406 L97.2031,285.6406 Z " fill="#000000"/><text fill="#000000" font-family="sans-serif" font-size="14" font-style="italic" lengthAdjust="spacing" textLength="111" x="116.75" y="294.7285">ISessionManager</text><line style="stroke:#181818;stroke-width:0.5;" x1="41" x2="271" y1="305" y2="305"/><ellipse cx="51" cy="319.3047" fill="none" rx="3" ry="3" style="stroke:#038048;stroke-width:1.0;"/><text fill="#000000" font-family="sans-serif" font-size="14" lengthAdjust="spacing" textLength="148" x="60" y="323.5332">Onchange Action:event</text><line style="stroke:#181818;stroke-width:0.5;" x1="41" x2="271" y1="330.6094" y2="330.6094"/><ellipse cx="51" cy="344.9141" fill="#84BE84" rx="3" ry="3" style="stroke:#038048;stroke-width:1.0;"/><text fill="#000000" font-family="sans-serif" font-size="14" lengthAdjust="spacing" textLength="206" x="60" y="349.1426">GetStringValue(key:string):string</text><ellipse cx="51" cy="362.5234" fill="#84BE84" rx="3" ry="3" style="stroke:#038048;stroke-width:1.0;"/><text fill="#000000" font-family="sans-serif" font-size="14" lengthAdjust="spacing" textLength="137" x="60" y="366.752">GetKey(key:string):int</text><ellipse cx="51" cy="380.1328" fill="#84BE84" rx="3" ry="3" style="stroke:#038048;stroke-width:1.0;"/><text fill="#000000" font-family="sans-serif" font-size="14" lengthAdjust="spacing" textLength="204" x="60" y="384.3613">SetMall(key:int,value:string):void</text></g><!--MD5=[e0ac8d0730446c1896f2b1a39099c971]
class DataHelper--><g id="elem_DataHelper"><rect codeLine="83" fill="#F1F1F1" height="65.6094" id="DataHelper" rx="2.5" ry="2.5" style="stroke:#181818;stroke-width:0.5;" width="211" x="307.5" y="299"/><ellipse cx="373.25" cy="315" fill="#ADD1B2" rx="11" ry="11" style="stroke:#181818;stroke-width:1.0;"/><path d="M376.0156,310.875 Q376.1719,310.6563 376.3594,310.5469 Q376.5469,310.4375 376.7656,310.4375 Q377.1406,310.4375 377.375,310.7031 Q377.6094,310.9531 377.6094,311.5625 L377.6094,313.0156 Q377.6094,313.625 377.375,313.8906 Q377.1406,314.1563 376.7656,314.1563 Q376.4219,314.1563 376.2188,313.9531 Q376.0156,313.7656 375.9063,313.25 Q375.8594,312.8906 375.6719,312.7031 Q375.3438,312.3281 374.7344,312.1094 Q374.125,311.8906 373.5,311.8906 Q372.7344,311.8906 372.0938,312.2188 Q371.4688,312.5469 370.9688,313.2969 Q370.4844,314.0469 370.4844,315.0781 L370.4844,316.1719 Q370.4844,317.4063 371.375,318.2344 Q372.2656,319.0469 373.8594,319.0469 Q374.7969,319.0469 375.4531,318.7969 Q375.8438,318.6406 376.2656,318.2031 Q376.5313,317.9375 376.6719,317.8594 Q376.8281,317.7813 377.0313,317.7813 Q377.3594,317.7813 377.6094,318.0469 Q377.875,318.2969 377.875,318.6406 Q377.875,318.9844 377.5313,319.3906 Q377.0313,319.9688 376.2344,320.2969 Q375.1563,320.75 373.8594,320.75 Q372.3438,320.75 371.1406,320.125 Q370.1563,319.625 369.4688,318.5625 Q368.7813,317.4844 368.7813,316.2031 L368.7813,315.0469 Q368.7813,313.7188 369.3906,312.5781 Q370.0156,311.4219 371.1094,310.8125 Q372.2031,310.1875 373.4375,310.1875 Q374.1719,310.1875 374.8125,310.3594 Q375.4688,310.5156 376.0156,310.875 Z " fill="#000000"/><text fill="#000000" font-family="sans-serif" font-size="14" lengthAdjust="spacing" textLength="71" x="393.75" y="320.7285">DataHelper</text><line style="stroke:#181818;stroke-width:0.5;" x1="308.5" x2="517.5" y1="331" y2="331"/><line style="stroke:#181818;stroke-width:0.5;" x1="308.5" x2="517.5" y1="339" y2="339"/><ellipse cx="318.5" cy="353.3047" fill="#84BE84" rx="3" ry="3" style="stroke:#038048;stroke-width:1.0;"/><text fill="#000000" font-family="sans-serif" font-size="14" lengthAdjust="spacing" textLength="185" x="327.5" y="357.5332">ToSha256(input:string):string</text></g><!--MD5=[dd5180f7fa3b71c9fd36b7991e101be6]
class RestCaller--><g id="elem_RestCaller"><rect codeLine="87" fill="#F1F1F1" height="206.4844" id="RestCaller" rx="2.5" ry="2.5" style="stroke:#181818;stroke-width:0.5;" width="544" x="880" y="7"/><ellipse cx="1114.75" cy="23" fill="#ADD1B2" rx="11" ry="11" style="stroke:#181818;stroke-width:1.0;"/><path d="M1117.5156,18.875 Q1117.6719,18.6563 1117.8594,18.5469 Q1118.0469,18.4375 1118.2656,18.4375 Q1118.6406,18.4375 1118.875,18.7031 Q1119.1094,18.9531 1119.1094,19.5625 L1119.1094,21.0156 Q1119.1094,21.625 1118.875,21.8906 Q1118.6406,22.1563 1118.2656,22.1563 Q1117.9219,22.1563 1117.7188,21.9531 Q1117.5156,21.7656 1117.4063,21.25 Q1117.3594,20.8906 1117.1719,20.7031 Q1116.8438,20.3281 1116.2344,20.1094 Q1115.625,19.8906 1115,19.8906 Q1114.2344,19.8906 1113.5938,20.2188 Q1112.9688,20.5469 1112.4688,21.2969 Q1111.9844,22.0469 1111.9844,23.0781 L1111.9844,24.1719 Q1111.9844,25.4063 1112.875,26.2344 Q1113.7656,27.0469 1115.3594,27.0469 Q1116.2969,27.0469 1116.9531,26.7969 Q1117.3438,26.6406 1117.7656,26.2031 Q1118.0313,25.9375 1118.1719,25.8594 Q1118.3281,25.7813 1118.5313,25.7813 Q1118.8594,25.7813 1119.1094,26.0469 Q1119.375,26.2969 1119.375,26.6406 Q1119.375,26.9844 1119.0313,27.3906 Q1118.5313,27.9688 1117.7344,28.2969 Q1116.6563,28.75 1115.3594,28.75 Q1113.8438,28.75 1112.6406,28.125 Q1111.6563,27.625 1110.9688,26.5625 Q1110.2813,25.4844 1110.2813,24.2031 L1110.2813,23.0469 Q1110.2813,21.7188 1110.8906,20.5781 Q1111.5156,19.4219 1112.6094,18.8125 Q1113.7031,18.1875 1114.9375,18.1875 Q1115.6719,18.1875 1116.3125,18.3594 Q1116.9688,18.5156 1117.5156,18.875 Z " fill="#000000"/><text fill="#000000" font-family="sans-serif" font-size="14" lengthAdjust="spacing" textLength="66" x="1135.25" y="28.7285">RestCaller</text><line style="stroke:#181818;stroke-width:0.5;" x1="881" x2="1423" y1="39" y2="39"/><rect fill="none" height="6" style="stroke:#C82930;stroke-width:1.0;" width="6" x="888" y="50.3047"/><text fill="#000000" font-family="sans-serif" font-size="14" lengthAdjust="spacing" textLength="80" x="900" y="57.5332">apikey:string</text><rect fill="none" height="6" style="stroke:#C82930;stroke-width:1.0;" width="6" x="888" y="67.9141"/><text fill="#000000" font-family="sans-serif" font-size="14" lengthAdjust="spacing" textLength="87" x="900" y="75.1426">baseUri:string</text><rect fill="none" height="6" style="stroke:#C82930;stroke-width:1.0;" width="6" x="888" y="85.5234"/><text fill="#000000" font-family="sans-serif" font-size="14" lengthAdjust="spacing" textLength="98" x="900" y="92.752">client:HttpClient</text><line style="stroke:#181818;stroke-width:0.5;" x1="881" x2="1423" y1="99.8281" y2="99.8281"/><ellipse cx="891" cy="114.1328" fill="#84BE84" rx="3" ry="3" style="stroke:#038048;stroke-width:1.0;"/><text fill="#000000" font-family="sans-serif" font-size="14" lengthAdjust="spacing" textLength="76" x="900" y="118.3613">RestCaller()</text><ellipse cx="891" cy="131.7422" fill="#84BE84" rx="3" ry="3" style="stroke:#038048;stroke-width:1.0;"/><text fill="#000000" font-family="sans-serif" font-size="14" lengthAdjust="spacing" textLength="230" x="900" y="135.9707">GetMalls(cvrnr:int):Task&lt;List&lt;Mall&gt;&gt;</text><ellipse cx="891" cy="149.3516" fill="#84BE84" rx="3" ry="3" style="stroke:#038048;stroke-width:1.0;"/><text fill="#000000" font-family="sans-serif" font-size="14" lengthAdjust="spacing" textLength="231" x="900" y="153.5801">GetMap(mallid:int):Task&lt;List&lt;Map&gt;&gt;</text><rect fill="#F24D5C" height="6" style="stroke:#C82930;stroke-width:1.0;" width="6" x="888" y="163.9609"/><text fill="#000000" font-family="sans-serif" font-size="14" lengthAdjust="spacing" textLength="474" x="900" y="171.1895">CreateaRequestMessage(uri:Uri,method:HttpMethod):HttpRequestMessage</text><ellipse cx="891" cy="184.5703" fill="#84BE84" rx="3" ry="3" style="stroke:#038048;stroke-width:1.0;"/><text fill="#000000" font-family="sans-serif" font-size="14" lengthAdjust="spacing" textLength="225" x="900" y="188.7988">InsertMap(map:MapV):Task&lt;string&gt;</text><ellipse cx="891" cy="202.1797" fill="#84BE84" rx="3" ry="3" style="stroke:#038048;stroke-width:1.0;"/><text fill="#000000" font-family="sans-serif" font-size="14" lengthAdjust="spacing" textLength="518" x="900" y="206.4082">GetLoginCredentiels(username:string,password:string):Task&lt;SessionCredentials&gt;</text></g><!--MD5=[eb0f2de5c8cefaf2a747fc1f7b8643fc]
link RestCaller to Mall--><g id="link_RestCaller_Mall"><path codeLine="100" d="M879.79,187 C788.64,187 709.75,187 709.75,187 C709.75,187 709.75,276.29 709.75,276.29 " fill="none" id="RestCaller-to-Mall" style="stroke:#181818;stroke-width:1.0;"/><polygon fill="#181818" points="709.75,281.29,713.75,272.29,709.75,276.29,705.75,272.29,709.75,281.29" style="stroke:#181818;stroke-width:1.0;"/><text fill="#000000" font-family="sans-serif" font-size="13" lengthAdjust="spacing" textLength="7" x="864.6049" y="186.5416">1</text><ellipse cx="694.3867" cy="265.9223" fill="#000000" rx="2.5" ry="2.5" style="stroke:#000000;stroke-width:0.0;"/><text fill="#000000" font-family="sans-serif" font-size="13" lengthAdjust="spacing" textLength="15" x="701.8867" y="270.5658">..0</text></g><!--MD5=[edcd31908a62266ec9ad6c781657e0f1]
link RestCaller to Map--><g id="link_RestCaller_Map"><path codeLine="101" d="M1001.25,213.2 C1001.25,213.2 1001.25,276.29 1001.25,276.29 " fill="none" id="RestCaller-to-Map" style="stroke:#181818;stroke-width:1.0;"/><polygon fill="#181818" points="1001.25,281.29,1005.25,272.29,1001.25,276.29,997.25,272.29,1001.25,281.29" style="stroke:#181818;stroke-width:1.0;"/><text fill="#000000" font-family="sans-serif" font-size="13" lengthAdjust="spacing" textLength="7" x="982.9223" y="234.8565">1</text><ellipse cx="984.4102" cy="265.9223" fill="#000000" rx="2.5" ry="2.5" style="stroke:#000000;stroke-width:0.0;"/><text fill="#000000" font-family="sans-serif" font-size="13" lengthAdjust="spacing" textLength="15" x="991.9102" y="270.5658">..0</text></g><!--MD5=[620177c4d42980dfe50daf6de6cbd8aa]
link RestCaller to SessionCredentials--><g id="link_RestCaller_SessionCredentials"><path codeLine="102" d="M1424.3,187 C1583.67,187 1753.83,187 1753.83,187 C1753.83,187 1753.83,267.6 1753.83,267.6 " fill="none" id="RestCaller-to-SessionCredentials" style="stroke:#181818;stroke-width:1.0;"/><polygon fill="#181818" points="1753.83,272.6,1757.83,263.6,1753.83,267.6,1749.83,263.6,1753.83,272.6" style="stroke:#181818;stroke-width:1.0;"/><text fill="#000000" font-family="sans-serif" font-size="13" lengthAdjust="spacing" textLength="7" x="1431.6259" y="186.3262">1</text><text fill="#000000" font-family="sans-serif" font-size="13" lengthAdjust="spacing" textLength="7" x="1738.89" y="262.297">1</text></g><!--MD5=[23c5da5c37d349ab1bb46b03ac15921a]
link RestCaller to MapV--><g id="link_RestCaller_MapV"><path codeLine="103" d="M1291,213.2 C1291,213.2 1291,267.94 1291,267.94 " fill="none" id="RestCaller-to-MapV" style="stroke:#181818;stroke-width:1.0;"/><polygon fill="#181818" points="1291,272.94,1295,263.94,1291,267.94,1287,263.94,1291,272.94" style="stroke:#181818;stroke-width:1.0;"/><text fill="#000000" font-family="sans-serif" font-size="13" lengthAdjust="spacing" textLength="7" x="1293.9508" y="234.8565">1</text><text fill="#000000" font-family="sans-serif" font-size="13" lengthAdjust="spacing" textLength="7" x="1273.5797" y="262.2569">1</text></g><!--MD5=[3f1ce5002936dd1c8cbdaafc509aa5f4]
link AppState to SessionCredentials--><g id="link_AppState_SessionCredentials"><path codeLine="105" d="M1884.17,172.65 C1884.17,172.65 1884.17,259.92 1884.17,259.92 " fill="none" id="AppState-SessionCredentials" style="stroke:#181818;stroke-width:1.0;"/><polygon fill="#181818" points="1884.17,272.92,1888.17,263.92,1884.17,267.92,1880.17,263.92,1884.17,272.92" style="stroke:#181818;stroke-width:1.0;"/><line style="stroke:#181818;stroke-width:1.0;" x1="1884.17" x2="1884.17" y1="267.92" y2="259.92"/><polygon fill="none" points="1884.17,160.65,1880.17,166.65,1884.17,172.65,1888.17,166.65,1884.17,160.65" style="stroke:#181818;stroke-width:1.0;"/><text fill="#000000" font-family="sans-serif" font-size="13" lengthAdjust="spacing" textLength="7" x="1884.686" y="262.2345">1</text><text fill="#000000" font-family="sans-serif" font-size="13" lengthAdjust="spacing" textLength="7" x="1885.0715" y="181.6932">1</text></g><!--MD5=[5bfe75ccd0731cfd2b9d15aea81251ac]
link ComponentV to GeodataV--><g id="link_ComponentV_GeodataV"><path codeLine="106" d="M1373,581.17 C1373,581.17 1373,615.76 1373,615.76 " fill="none" id="ComponentV-GeodataV" style="stroke:#181818;stroke-width:1.0;"/><polygon fill="#181818" points="1373,628.76,1377,619.76,1373,623.76,1369,619.76,1373,628.76" style="stroke:#181818;stroke-width:1.0;"/><line style="stroke:#181818;stroke-width:1.0;" x1="1373" x2="1373" y1="623.76" y2="615.76"/><polygon fill="none" points="1373,569.17,1369,575.17,1373,581.17,1377,575.17,1373,569.17" style="stroke:#181818;stroke-width:1.0;"/><text fill="#000000" font-family="sans-serif" font-size="13" lengthAdjust="spacing" textLength="7" x="1365.6172" y="617.933">1</text><text fill="#000000" font-family="sans-serif" font-size="13" lengthAdjust="spacing" textLength="7" x="1365.5734" y="590.8462">1</text></g><!--MD5=[4b2cfefaaaa19382e924d20dd8c63df1]
link MapV to ComponentV--><g id="link_MapV_ComponentV"><path codeLine="107" d="M1373,403.27 C1373,403.27 1373,437.99 1373,437.99 " fill="none" id="MapV-ComponentV" style="stroke:#181818;stroke-width:1.0;"/><polygon fill="#181818" points="1373,450.99,1377,441.99,1373,445.99,1369,441.99,1373,450.99" style="stroke:#181818;stroke-width:1.0;"/><line style="stroke:#181818;stroke-width:1.0;" x1="1373" x2="1373" y1="445.99" y2="437.99"/><polygon fill="none" points="1373,391.27,1369,397.27,1373,403.27,1377,397.27,1373,391.27" style="stroke:#181818;stroke-width:1.0;"/><text fill="#000000" font-family="sans-serif" font-size="13" lengthAdjust="spacing" textLength="7" x="1365.5734" y="440.313">1</text><text fill="#000000" font-family="sans-serif" font-size="13" lengthAdjust="spacing" textLength="20" x="1351.7813" y="412.9584">0..*</text></g><!--MD5=[079ee43d6fc88137fff80982b83f0e33]
@startuml Website class diagram
top to bottom direction
skinparam linetype ortho

'Modles'
Class Mall{
+Mall(id:int,location:string)
+Id:int
+Location:string
}

Class Map{
+Map(layer:int,components:Dictonary<string,object>)
+Layer:int
+components:Dictonary<string,object>
}

Class MapV{
+MapV(mallid:int,layer:int,components:IEnumable<ComponentV>)
+MallID:int
+Layer:int
+Components:IEnumable<ComponentV>
}

Class ComponentV{
+ComponentV(description:string,zindex:int,geodata:GeodataV)
+Description:string
+ZIndex:int
+Geodata:GeodataV
}


Class GeodataV{
+GeodataV(type:string,xInput:int[],yInput:int[],srid:int)
+Type:string
+XInput:int[]
+YInput:int[]
+Srid:string
}

Class AppState{
+AppState(credentials:SessionCredentials,username:string)
+Credentials:SessionCredentials
+Username:string
}


Class SessionCredentials{
+SessionCredentials(role:string,sessionkey:string,firmid:int)
+Role:string
+SessionKey:string
+FirmID:int
}

class FirmUser{
+FirmUser(username:string,password:string)
+Password:string
+Username:string
}

'CanvasModles'
class Square{
+Addpoint(newPoint:Point):bool
+GetPoints:Point[]
+Square()
}

enum DrawTool{
    LINE
    SQUARE
    POLYGON
}

'Managers'

Interface ISessionManager{
+GetStringValue(key:string):string
+GetKey(key:string):int
+SetMall(key:int,value:string):void
+Onchange Action:event
}

'Utils'
Class DataHelper{
+ToSha256(input:string):string
}

class RestCaller
{
+RestCaller()
+GetMalls(cvrnr:int):Task<List<Mall>>
+GetMap(mallid:int):Task<List<Map>>
-CreateaRequestMessage(uri:Uri,method:HttpMethod):HttpRequestMessage
+InsertMap(map:MapV):Task<string>
+GetLoginCredentiels(username:string,password:string):Task<SessionCredentials>
-apikey:string
-baseUri:string
-client:HttpClient
}

RestCaller "1" - -> "*..0" Mall
RestCaller "1" - -> "*..0" Map
RestCaller "1" - -> "1" SessionCredentials
RestCaller "1" - -> "1" MapV

AppState "1" o- -> "1" SessionCredentials
ComponentV "1" o- -> "1" GeodataV
MapV "1" o- -> "0..*" ComponentV

@enduml

@startuml Website class diagram
top to bottom direction
skinparam linetype ortho

Class Mall{
+Mall(id:int,location:string)
+Id:int
+Location:string
}

Class Map{
+Map(layer:int,components:Dictonary<string,object>)
+Layer:int
+components:Dictonary<string,object>
}

Class MapV{
+MapV(mallid:int,layer:int,components:IEnumable<ComponentV>)
+MallID:int
+Layer:int
+Components:IEnumable<ComponentV>
}

Class ComponentV{
+ComponentV(description:string,zindex:int,geodata:GeodataV)
+Description:string
+ZIndex:int
+Geodata:GeodataV
}


Class GeodataV{
+GeodataV(type:string,xInput:int[],yInput:int[],srid:int)
+Type:string
+XInput:int[]
+YInput:int[]
+Srid:string
}

Class AppState{
+AppState(credentials:SessionCredentials,username:string)
+Credentials:SessionCredentials
+Username:string
}


Class SessionCredentials{
+SessionCredentials(role:string,sessionkey:string,firmid:int)
+Role:string
+SessionKey:string
+FirmID:int
}

class FirmUser{
+FirmUser(username:string,password:string)
+Password:string
+Username:string
}

class Square{
+Addpoint(newPoint:Point):bool
+GetPoints:Point[]
+Square()
}

enum DrawTool{
    LINE
    SQUARE
    POLYGON
}


Interface ISessionManager{
+GetStringValue(key:string):string
+GetKey(key:string):int
+SetMall(key:int,value:string):void
+Onchange Action:event
}

Class DataHelper{
+ToSha256(input:string):string
}

class RestCaller
{
+RestCaller()
+GetMalls(cvrnr:int):Task<List<Mall>>
+GetMap(mallid:int):Task<List<Map>>
-CreateaRequestMessage(uri:Uri,method:HttpMethod):HttpRequestMessage
+InsertMap(map:MapV):Task<string>
+GetLoginCredentiels(username:string,password:string):Task<SessionCredentials>
-apikey:string
-baseUri:string
-client:HttpClient
}

RestCaller "1" - -> "*..0" Mall
RestCaller "1" - -> "*..0" Map
RestCaller "1" - -> "1" SessionCredentials
RestCaller "1" - -> "1" MapV

AppState "1" o- -> "1" SessionCredentials
ComponentV "1" o- -> "1" GeodataV
MapV "1" o- -> "0..*" ComponentV

@enduml

PlantUML version 1.2022.7(Mon Aug 22 19:01:30 CEST 2022)
(GPL source distribution)
Java Runtime: OpenJDK Runtime Environment
JVM: OpenJDK 64-Bit Server VM
Default Encoding: Cp1252
Language: da
Country: DK
--></g></svg>